<?xml version="1.0" standalone="no"?>
<!DOCTYPE svg PUBLIC "-//W3C//DTD SVG 20010904//EN"
 "http://www.w3.org/TR/2001/REC-SVG-20010904/DTD/svg10.dtd">
<svg version="1.0" xmlns="http://www.w3.org/2000/svg"
 width="28.000000pt" height="28.000000pt" viewBox="0 0 28.000000 28.000000"
 preserveAspectRatio="xMidYMid meet">

<g transform="translate(0.000000,28.000000) scale(0.100000,-0.100000)"
fill="#000000" stroke="none">
<path d="M50 244 c-6 -14 -10 -38 -10 -54 0 -16 4 -40 10 -54 8 -23 15 -26 53
-26 l44 0 -10 -40 c-8 -29 -8 -43 0 -51 18 -18 37 -5 76 54 31 47 37 64 37
110 0 78 -12 87 -111 87 -76 0 -80 -1 -89 -26z m168 -6 c25 -25 14 -92 -25
-151 -20 -31 -38 -55 -40 -53 -2 1 2 17 8 35 17 48 7 61 -46 61 -48 0 -48 0
-48 60 0 62 -2 60 71 60 40 0 73 -5 80 -12z"/>
</g>
</svg>
