<?xml version="1.0" standalone="no"?>
<!DOCTYPE svg PUBLIC "-//W3C//DTD SVG 20010904//EN"
 "http://www.w3.org/TR/2001/REC-SVG-20010904/DTD/svg10.dtd">
<svg version="1.0" xmlns="http://www.w3.org/2000/svg"
 width="28.000000pt" height="28.000000pt" viewBox="0 0 28.000000 28.000000"
 preserveAspectRatio="xMidYMid meet">

<g transform="translate(0.000000,28.000000) scale(0.100000,-0.100000)"
fill="#000000" stroke="none">
<path d="M71 217 c-38 -50 -41 -58 -41 -119 0 -44 5 -69 14 -77 9 -8 45 -11
98 -9 l83 3 9 37 c6 24 6 52 0 75 -8 36 -12 38 -51 41 l-43 3 3 47 c3 68 -21
67 -72 -1z m45 -24 c-1 -38 -1 -38 44 -43 l45 -5 0 -55 0 -55 -61 -3 c-78 -4
-98 12 -92 73 4 32 51 125 63 125 1 0 2 -17 1 -37z"/>
</g>
</svg>
